<?xml version="1.0" encoding="UTF-8"?><svg xmlns="http://www.w3.org/2000/svg" xmlns:xlink="http://www.w3.org/1999/xlink" fill-opacity="1" color-rendering="auto" color-interpolation="auto" text-rendering="auto" stroke="black" stroke-linecap="square" width="274" stroke-miterlimit="10" shape-rendering="auto" stroke-opacity="1" fill="black" stroke-dasharray="none" font-weight="normal" stroke-width="1" height="414" font-family="'Dialog'" font-style="normal" stroke-linejoin="miter" font-size="12px" stroke-dashoffset="0" image-rendering="auto">
  <!--Generated by ySVG 2.5-->
  <defs id="genericDefs"/>
  <g>
    <defs id="defs1">
      <clipPath clipPathUnits="userSpaceOnUse" id="clipPath1">
        <path d="M0 0 L274 0 L274 414 L0 414 L0 0 Z"/>
      </clipPath>
      <clipPath clipPathUnits="userSpaceOnUse" id="clipPath2">
        <path d="M5 -31 L279 -31 L279 383 L5 383 L5 -31 Z"/>
      </clipPath>
      <clipPath clipPathUnits="userSpaceOnUse" id="clipPath3">
        <path d="M0 0 L0 17 L74 17 L74 0 Z"/>
      </clipPath>
      <clipPath clipPathUnits="userSpaceOnUse" id="clipPath4">
        <path d="M0 0 L0 17 L67 17 L67 0 Z"/>
      </clipPath>
      <clipPath clipPathUnits="userSpaceOnUse" id="clipPath5">
        <path d="M0 0 L0 17 L64 17 L64 0 Z"/>
      </clipPath>
      <clipPath clipPathUnits="userSpaceOnUse" id="clipPath6">
        <path d="M0 0 L0 17 L165 17 L165 0 Z"/>
      </clipPath>
      <clipPath clipPathUnits="userSpaceOnUse" id="clipPath7">
        <path d="M0 0 L0 17 L70 17 L70 0 Z"/>
      </clipPath>
      <clipPath clipPathUnits="userSpaceOnUse" id="clipPath8">
        <path d="M0 0 L0 17 L72 17 L72 0 Z"/>
      </clipPath>
      <script type="text/ecmascript"><![CDATA[      var SVGDocument = null;
      var SVGRoot = null;
      var TrueCoords = null;
      var lastElement = null;
      var initialized = null;
      var tipGroup;
      function Init(evt)
      {
         SVGDocument = evt.target.ownerDocument;
         SVGRoot = SVGDocument.documentElement;
         TrueCoords = SVGRoot.createSVGPoint();
         initialized = evt;
      };
      function GetTrueCoords(evt)
      {
         var newScale = SVGRoot.currentScale;
         var translation = SVGRoot.currentTranslate;
         TrueCoords.x = (evt.clientX - translation.x)/newScale;
         TrueCoords.y = (evt.clientY - translation.y)/newScale;
      };
      function HideTooltip( evt )
      {
         if(initialized == null) {
           Init(evt);
         }
         if(tipGroup != null) {
           tipGroup.setAttributeNS(null, 'visibility', 'hidden');
         }
      };
      function ShowTooltip( evt )
      {
         if(initialized == null) {
           Init(evt);
         }
         GetTrueCoords( evt );
         var tipScale = 1/SVGRoot.currentScale;
         var targetElement = evt.currentTarget;
         if ( lastElement != targetElement )
         {
            var targetId = targetElement.getAttributeNS(null, 'id');
            var tipId = 'tooltip.' + targetId;
            tipGroup = SVGDocument.getElementById(tipId);
            var xPos = TrueCoords.x + (10 * tipScale);
            var yPos = TrueCoords.y + (10 * tipScale);
            tipGroup.setAttributeNS(null, 'transform', 'translate(' + xPos + ',' + yPos + ') scale(' + tipScale + ')');
            tipGroup.setAttributeNS(null, 'visibility', 'visible');
         }
      };
]]></script>
    </defs>
    <g fill="white" text-rendering="geometricPrecision" shape-rendering="geometricPrecision" transform="translate(-5,31)" stroke="white">
      <rect x="5" width="274" height="414" y="-31" clip-path="url(#clipPath2)" stroke="none"/>
    </g>
    <g id="y.node.0">
      <g fill="rgb(204,153,255)" text-rendering="geometricPrecision" shape-rendering="geometricPrecision" transform="matrix(1,0,0,1,-5,31)" stroke="rgb(204,153,255)">
        <rect x="84.4818" width="56.6094" height="30" y="0" stroke="none"/>
      </g>
      <g>
        <g text-rendering="geometricPrecision" stroke-miterlimit="1.45" shape-rendering="geometricPrecision" font-family="sans-serif" transform="matrix(1,0,0,1,-5,31)" stroke-linecap="butt">
          <text x="91.4818" xml:space="preserve" y="19.1543" stroke="none">CCND1</text>
        </g>
      </g>
    </g>
    <g id="y.node.1">
      <g fill="rgb(204,153,255)" text-rendering="geometricPrecision" shape-rendering="geometricPrecision" transform="matrix(1,0,0,1,-5,31)" stroke="rgb(204,153,255)">
        <rect x="20.0002" width="227.6035" height="30" y="171.9999" stroke="none"/>
      </g>
      <g>
        <g text-rendering="geometricPrecision" stroke-miterlimit="1.45" shape-rendering="geometricPrecision" font-family="sans-serif" transform="matrix(1,0,0,1,-5,31)" stroke-linecap="butt">
          <text x="27.0002" xml:space="preserve" y="191.1542" stroke="none">CDK4,CDK6::CCND1,CCND2,CCND3</text>
        </g>
      </g>
    </g>
    <g id="y.node.2">
      <g fill="rgb(204,153,255)" text-rendering="geometricPrecision" shape-rendering="geometricPrecision" transform="matrix(1,0,0,1,-5,31)" stroke="rgb(204,153,255)">
        <rect x="53.3397" width="47.123" height="30" y="122" stroke="none"/>
      </g>
      <g>
        <g text-rendering="geometricPrecision" stroke-miterlimit="1.45" shape-rendering="geometricPrecision" font-family="sans-serif" transform="matrix(1,0,0,1,-5,31)" stroke-linecap="butt">
          <text x="60.3397" xml:space="preserve" y="141.1543" stroke="none">CDK4</text>
        </g>
      </g>
    </g>
    <g id="y.node.3">
      <g fill="rgb(204,153,255)" text-rendering="geometricPrecision" shape-rendering="geometricPrecision" transform="matrix(1,0,0,1,-5,31)" stroke="rgb(204,153,255)">
        <rect x="32.9542" width="64.332" height="30" y="61" stroke="none"/>
      </g>
      <g>
        <g text-rendering="geometricPrecision" stroke-miterlimit="1.45" shape-rendering="geometricPrecision" font-family="sans-serif" transform="matrix(1,0,0,1,-5,31)" stroke-linecap="butt">
          <text x="39.9542" xml:space="preserve" y="80.1543" stroke="none">CDKN1B</text>
        </g>
      </g>
    </g>
    <g id="y.node.4">
      <g fill="rgb(204,153,255)" text-rendering="geometricPrecision" shape-rendering="geometricPrecision" transform="matrix(1,0,0,1,-5,31)" stroke="rgb(204,153,255)">
        <rect x="111.3567" width="44.8906" height="30" y="221.9999" stroke="none"/>
      </g>
      <g>
        <g text-rendering="geometricPrecision" stroke-miterlimit="1.45" shape-rendering="geometricPrecision" font-family="sans-serif" transform="matrix(1,0,0,1,-5,31)" stroke-linecap="butt">
          <text x="118.3567" xml:space="preserve" y="241.1542" stroke="none">RBL1</text>
        </g>
      </g>
    </g>
    <g id="y.node.5">
      <g fill="rgb(204,153,255)" text-rendering="geometricPrecision" shape-rendering="geometricPrecision" transform="matrix(1,0,0,1,-5,31)" stroke="rgb(204,153,255)">
        <rect x="31.3586" width="204.8867" height="30" y="271.9999" stroke="none"/>
      </g>
      <g>
        <g text-rendering="geometricPrecision" stroke-miterlimit="1.45" shape-rendering="geometricPrecision" font-family="sans-serif" transform="matrix(1,0,0,1,-5,31)" stroke-linecap="butt">
          <text x="38.3586" xml:space="preserve" y="291.1542" stroke="none">RBL1::E2F4,E2F5::TFDP1,TFDP2</text>
        </g>
      </g>
    </g>
    <g id="y.node.6">
      <g fill="rgb(204,153,255)" text-rendering="geometricPrecision" shape-rendering="geometricPrecision" transform="matrix(1,0,0,1,-5,31)" stroke="rgb(204,153,255)">
        <rect x="113.7707" width="40.0625" height="30" y="321.9999" stroke="none"/>
      </g>
      <g>
        <g text-rendering="geometricPrecision" stroke-miterlimit="1.45" shape-rendering="geometricPrecision" font-family="sans-serif" transform="matrix(1,0,0,1,-5,31)" stroke-linecap="butt">
          <text x="120.7707" xml:space="preserve" y="341.1542" stroke="none">MYC</text>
        </g>
      </g>
    </g>
    <g onmouseout="HideTooltip(evt)" id="y.edge.0" onmousemove="ShowTooltip(evt)">
      <g text-rendering="geometricPrecision" stroke-miterlimit="1.45" shape-rendering="geometricPrecision" transform="matrix(1,0,0,1,-5,31)" stroke-linecap="butt">
        <path fill="none" d="M131.6563 30 L131.6563 45.5 L190.7028 45.5 L190.7029 163.969"/>
      </g>
      <g text-rendering="geometricPrecision" stroke-miterlimit="1.45" shape-rendering="geometricPrecision" transform="matrix(1,0,0,1,-5,31)" stroke-linecap="butt">
        <path d="M190.7029 171.969 L195.7028 159.969 L190.7029 162.969 L185.7029 159.969 Z" stroke="none"/>
      </g>
    </g>
    <g onmouseout="HideTooltip(evt)" id="y.edge.1" onmousemove="ShowTooltip(evt)">
      <g text-rendering="geometricPrecision" stroke-miterlimit="1.45" shape-rendering="geometricPrecision" transform="matrix(1,0,0,1,-5,31)" stroke-linecap="butt">
        <path fill="none" d="M112.7865 30 L112.7865 106.5 L88.682 106.5 L88.682 113.9697"/>
        <path d="M88.682 121.9697 L93.682 109.9697 L88.682 112.9697 L83.682 109.9697 Z" stroke="none"/>
      </g>
    </g>
    <g onmouseout="HideTooltip(evt)" id="y.edge.7" onmousemove="ShowTooltip(evt)">
      <g text-rendering="geometricPrecision" stroke-miterlimit="1.45" shape-rendering="geometricPrecision" transform="matrix(1,0,0,1,-5,31)" stroke-linecap="butt">
        <path fill="none" d="M76.9012 152 L76.9011 163.9608"/>
        <path d="M76.9011 171.9608 L81.9012 159.9609 L76.9011 162.9608 L71.9012 159.9608 Z" stroke="none"/>
      </g>
    </g>
    <g onmouseout="HideTooltip(evt)" id="y.edge.2" onmousemove="ShowTooltip(evt)">
      <g text-rendering="geometricPrecision" stroke-miterlimit="1.45" shape-rendering="geometricPrecision" transform="matrix(1,0,0,1,-5,31)" stroke-linecap="butt">
        <path fill="none" d="M93.9167 30 L93.9167 45.5 L65.1202 45.5 L65.1202 52.9697"/>
        <path d="M65.1202 60.9697 L70.1202 48.9697 L65.1202 51.9697 L60.1202 48.9697 Z" stroke="none"/>
      </g>
    </g>
    <g onmouseout="HideTooltip(evt)" id="y.edge.8" onmousemove="ShowTooltip(evt)">
      <g text-rendering="geometricPrecision" stroke-miterlimit="1.45" shape-rendering="geometricPrecision" transform="matrix(1,0,0,1,-5,31)" stroke-linecap="butt">
        <path fill="none" d="M65.1202 91 L65.1204 113.9697"/>
        <path d="M65.1204 121.9697 L70.1203 109.9697 L65.1204 112.9697 L60.1203 109.9698 Z" stroke="none"/>
      </g>
    </g>
    <g onmouseout="HideTooltip(evt)" id="y.edge.3" onmousemove="ShowTooltip(evt)">
      <g text-rendering="geometricPrecision" stroke-miterlimit="1.45" shape-rendering="geometricPrecision" transform="matrix(1,0,0,1,-5,31)" stroke-linecap="butt">
        <path fill="none" d="M133.802 201.9999 L133.802 213.9608"/>
        <path d="M133.802 221.9608 L138.802 209.9608 L133.802 212.9608 L128.802 209.9608 Z" stroke="none"/>
      </g>
    </g>
    <g onmouseout="HideTooltip(evt)" id="y.edge.4" onmousemove="ShowTooltip(evt)">
      <g text-rendering="geometricPrecision" stroke-miterlimit="1.45" shape-rendering="geometricPrecision" transform="matrix(1,0,0,1,-5,31)" stroke-linecap="butt">
        <path fill="none" d="M133.802 251.9999 L133.802 263.9608"/>
        <path d="M133.802 271.9608 L138.802 259.9608 L133.802 262.9608 L128.802 259.9608 Z" stroke="none"/>
      </g>
    </g>
    <g onmouseout="HideTooltip(evt)" id="y.edge.5" onmousemove="ShowTooltip(evt)">
      <g text-rendering="geometricPrecision" stroke-miterlimit="1.45" shape-rendering="geometricPrecision" transform="matrix(1,0,0,1,-5,31)" stroke-linecap="butt">
        <path fill="none" d="M133.802 301.9999 L133.802 313.9608"/>
        <path d="M133.802 321.9608 L138.802 309.9608 L133.802 312.9608 L128.802 309.9608 Z" stroke="none"/>
      </g>
    </g>
    <g onmouseout="HideTooltip(evt)" id="y.edge.6" onmousemove="ShowTooltip(evt)">
      <g text-rendering="geometricPrecision" stroke-miterlimit="1.45" shape-rendering="geometricPrecision" transform="matrix(1,0,0,1,-5,31)" stroke-linecap="butt">
        <path fill="none" d="M133.802 351.9999 L133.802 367.4999 L263.104 367.4999 L263.104 -15.5 L112.7865 -15.5 L112.7865 -8.0303"/>
        <path d="M112.7865 -0.0303 L117.7865 -12.0303 L112.7865 -9.0303 L107.7865 -12.0303 Z" stroke="none"/>
      </g>
    </g>
    <g visibility="hidden" id="tooltip.y.edge.0" pointer-events="none">
      <g fill="rgb(195,212,232)" text-rendering="geometricPrecision" shape-rendering="geometricPrecision" font-family="sans-serif" stroke="rgb(195,212,232)">
        <rect x="0" width="74" height="17" y="0" clip-path="url(#clipPath3)" stroke="none"/>
        <text fill="black" x="4" xml:space="preserve" y="13" clip-path="url(#clipPath3)" stroke="none">is_member</text>
      </g>
      <g fill="rgb(49,106,196)" text-rendering="geometricPrecision" shape-rendering="geometricPrecision" font-family="sans-serif" stroke="rgb(49,106,196)">
        <path d="M0 0 L74 0 L74 17 L0 17 L0 0 ZM1 1 L73 1 L73 16 L1 16 L1 1 Z" fill-rule="evenodd" clip-path="url(#clipPath3)" stroke="none"/>
      </g>
    </g>
    <g visibility="hidden" id="tooltip.y.edge.1" pointer-events="none">
      <g fill="rgb(195,212,232)" text-rendering="geometricPrecision" shape-rendering="geometricPrecision" font-family="sans-serif" stroke="rgb(195,212,232)">
        <rect x="0" width="67" height="17" y="0" clip-path="url(#clipPath4)" stroke="none"/>
        <text fill="black" x="4" xml:space="preserve" y="13" clip-path="url(#clipPath4)" stroke="none">activation</text>
      </g>
      <g fill="rgb(49,106,196)" text-rendering="geometricPrecision" shape-rendering="geometricPrecision" font-family="sans-serif" stroke="rgb(49,106,196)">
        <path d="M0 0 L67 0 L67 17 L0 17 L0 0 ZM1 1 L66 1 L66 16 L1 16 L1 1 Z" fill-rule="evenodd" clip-path="url(#clipPath4)" stroke="none"/>
      </g>
    </g>
    <g visibility="hidden" id="tooltip.y.edge.2" pointer-events="none">
      <g fill="rgb(195,212,232)" text-rendering="geometricPrecision" shape-rendering="geometricPrecision" font-family="sans-serif" stroke="rgb(195,212,232)">
        <rect x="0" width="64" height="17" y="0" clip-path="url(#clipPath5)" stroke="none"/>
        <text fill="black" x="4" xml:space="preserve" y="13" clip-path="url(#clipPath5)" stroke="none">inhibition</text>
      </g>
      <g fill="rgb(49,106,196)" text-rendering="geometricPrecision" shape-rendering="geometricPrecision" font-family="sans-serif" stroke="rgb(49,106,196)">
        <path d="M0 0 L64 0 L64 17 L0 17 L0 0 ZM1 1 L63 1 L63 16 L1 16 L1 1 Z" fill-rule="evenodd" clip-path="url(#clipPath5)" stroke="none"/>
      </g>
    </g>
    <g visibility="hidden" id="tooltip.y.edge.3" pointer-events="none">
      <g fill="rgb(195,212,232)" text-rendering="geometricPrecision" shape-rendering="geometricPrecision" font-family="sans-serif" stroke="rgb(195,212,232)">
        <rect x="0" width="165" height="17" y="0" clip-path="url(#clipPath6)" stroke="none"/>
        <text fill="black" x="4" xml:space="preserve" y="13" clip-path="url(#clipPath6)" stroke="none">inhibition,phosphorylation</text>
      </g>
      <g fill="rgb(49,106,196)" text-rendering="geometricPrecision" shape-rendering="geometricPrecision" font-family="sans-serif" stroke="rgb(49,106,196)">
        <path d="M0 0 L165 0 L165 17 L0 17 L0 0 ZM1 1 L164 1 L164 16 L1 16 L1 1 Z" fill-rule="evenodd" clip-path="url(#clipPath6)" stroke="none"/>
      </g>
    </g>
    <g visibility="hidden" id="tooltip.y.edge.4" pointer-events="none">
      <g fill="rgb(195,212,232)" text-rendering="geometricPrecision" shape-rendering="geometricPrecision" font-family="sans-serif" stroke="rgb(195,212,232)">
        <rect x="0" width="74" height="17" y="0" clip-path="url(#clipPath3)" stroke="none"/>
        <text fill="black" x="4" xml:space="preserve" y="13" clip-path="url(#clipPath3)" stroke="none">is_member</text>
      </g>
      <g fill="rgb(49,106,196)" text-rendering="geometricPrecision" shape-rendering="geometricPrecision" font-family="sans-serif" stroke="rgb(49,106,196)">
        <path d="M0 0 L74 0 L74 17 L0 17 L0 0 ZM1 1 L73 1 L73 16 L1 16 L1 1 Z" fill-rule="evenodd" clip-path="url(#clipPath3)" stroke="none"/>
      </g>
    </g>
    <g visibility="hidden" id="tooltip.y.edge.5" pointer-events="none">
      <g fill="rgb(195,212,232)" text-rendering="geometricPrecision" shape-rendering="geometricPrecision" font-family="sans-serif" stroke="rgb(195,212,232)">
        <rect x="0" width="70" height="17" y="0" clip-path="url(#clipPath7)" stroke="none"/>
        <text fill="black" x="4" xml:space="preserve" y="13" clip-path="url(#clipPath7)" stroke="none">repression</text>
      </g>
      <g fill="rgb(49,106,196)" text-rendering="geometricPrecision" shape-rendering="geometricPrecision" font-family="sans-serif" stroke="rgb(49,106,196)">
        <path d="M0 0 L70 0 L70 17 L0 17 L0 0 ZM1 1 L69 1 L69 16 L1 16 L1 1 Z" fill-rule="evenodd" clip-path="url(#clipPath7)" stroke="none"/>
      </g>
    </g>
    <g visibility="hidden" id="tooltip.y.edge.6" pointer-events="none">
      <g fill="rgb(195,212,232)" text-rendering="geometricPrecision" shape-rendering="geometricPrecision" font-family="sans-serif" stroke="rgb(195,212,232)">
        <rect x="0" width="72" height="17" y="0" clip-path="url(#clipPath8)" stroke="none"/>
        <text fill="black" x="4" xml:space="preserve" y="13" clip-path="url(#clipPath8)" stroke="none">expression</text>
      </g>
      <g fill="rgb(49,106,196)" text-rendering="geometricPrecision" shape-rendering="geometricPrecision" font-family="sans-serif" stroke="rgb(49,106,196)">
        <path d="M0 0 L72 0 L72 17 L0 17 L0 0 ZM1 1 L71 1 L71 16 L1 16 L1 1 Z" fill-rule="evenodd" clip-path="url(#clipPath8)" stroke="none"/>
      </g>
    </g>
    <g visibility="hidden" id="tooltip.y.edge.7" pointer-events="none">
      <g fill="rgb(195,212,232)" text-rendering="geometricPrecision" shape-rendering="geometricPrecision" font-family="sans-serif" stroke="rgb(195,212,232)">
        <rect x="0" width="74" height="17" y="0" clip-path="url(#clipPath3)" stroke="none"/>
        <text fill="black" x="4" xml:space="preserve" y="13" clip-path="url(#clipPath3)" stroke="none">is_member</text>
      </g>
      <g fill="rgb(49,106,196)" text-rendering="geometricPrecision" shape-rendering="geometricPrecision" font-family="sans-serif" stroke="rgb(49,106,196)">
        <path d="M0 0 L74 0 L74 17 L0 17 L0 0 ZM1 1 L73 1 L73 16 L1 16 L1 1 Z" fill-rule="evenodd" clip-path="url(#clipPath3)" stroke="none"/>
      </g>
    </g>
    <g visibility="hidden" id="tooltip.y.edge.8" pointer-events="none">
      <g fill="rgb(195,212,232)" text-rendering="geometricPrecision" shape-rendering="geometricPrecision" font-family="sans-serif" stroke="rgb(195,212,232)">
        <rect x="0" width="64" height="17" y="0" clip-path="url(#clipPath5)" stroke="none"/>
        <text fill="black" x="4" xml:space="preserve" y="13" clip-path="url(#clipPath5)" stroke="none">inhibition</text>
      </g>
      <g fill="rgb(49,106,196)" text-rendering="geometricPrecision" shape-rendering="geometricPrecision" font-family="sans-serif" stroke="rgb(49,106,196)">
        <path d="M0 0 L64 0 L64 17 L0 17 L0 0 ZM1 1 L63 1 L63 16 L1 16 L1 1 Z" fill-rule="evenodd" clip-path="url(#clipPath5)" stroke="none"/>
      </g>
    </g>
  </g>
</svg>
