<?xml version="1.0" encoding="UTF-8"?><svg xmlns="http://www.w3.org/2000/svg" xmlns:xlink="http://www.w3.org/1999/xlink" fill-opacity="1" color-rendering="auto" color-interpolation="auto" text-rendering="auto" stroke="black" stroke-linecap="square" width="483" stroke-miterlimit="10" shape-rendering="auto" stroke-opacity="1" fill="black" stroke-dasharray="none" font-weight="normal" stroke-width="1" height="523" font-family="'Dialog'" font-style="normal" stroke-linejoin="miter" font-size="12px" stroke-dashoffset="0" image-rendering="auto">
  <!--Generated by ySVG 2.5-->
  <defs id="genericDefs"/>
  <g>
    <defs id="defs1">
      <clipPath clipPathUnits="userSpaceOnUse" id="clipPath1">
        <path d="M0 0 L483 0 L483 523 L0 523 L0 0 Z"/>
      </clipPath>
      <clipPath clipPathUnits="userSpaceOnUse" id="clipPath2">
        <path d="M5 -15 L488 -15 L488 508 L5 508 L5 -15 Z"/>
      </clipPath>
      <clipPath clipPathUnits="userSpaceOnUse" id="clipPath3">
        <path d="M0 0 L0 17 L67 17 L67 0 Z"/>
      </clipPath>
      <clipPath clipPathUnits="userSpaceOnUse" id="clipPath4">
        <path d="M0 0 L0 17 L74 17 L74 0 Z"/>
      </clipPath>
      <clipPath clipPathUnits="userSpaceOnUse" id="clipPath5">
        <path d="M0 0 L0 17 L187 17 L187 0 Z"/>
      </clipPath>
      <clipPath clipPathUnits="userSpaceOnUse" id="clipPath6">
        <path d="M0 0 L0 17 L168 17 L168 0 Z"/>
      </clipPath>
      <clipPath clipPathUnits="userSpaceOnUse" id="clipPath7">
        <path d="M0 0 L0 17 L72 17 L72 0 Z"/>
      </clipPath>
      <clipPath clipPathUnits="userSpaceOnUse" id="clipPath8">
        <path d="M0 0 L0 17 L147 17 L147 0 Z"/>
      </clipPath>
      <clipPath clipPathUnits="userSpaceOnUse" id="clipPath9">
        <path d="M0 0 L0 17 L201 17 L201 0 Z"/>
      </clipPath>
      <script type="text/ecmascript"><![CDATA[      var SVGDocument = null;
      var SVGRoot = null;
      var TrueCoords = null;
      var lastElement = null;
      var initialized = null;
      var tipGroup;
      function Init(evt)
      {
         SVGDocument = evt.target.ownerDocument;
         SVGRoot = SVGDocument.documentElement;
         TrueCoords = SVGRoot.createSVGPoint();
         initialized = evt;
      };
      function GetTrueCoords(evt)
      {
         var newScale = SVGRoot.currentScale;
         var translation = SVGRoot.currentTranslate;
         TrueCoords.x = (evt.clientX - translation.x)/newScale;
         TrueCoords.y = (evt.clientY - translation.y)/newScale;
      };
      function HideTooltip( evt )
      {
         if(initialized == null) {
           Init(evt);
         }
         if(tipGroup != null) {
           tipGroup.setAttributeNS(null, 'visibility', 'hidden');
         }
      };
      function ShowTooltip( evt )
      {
         if(initialized == null) {
           Init(evt);
         }
         GetTrueCoords( evt );
         var tipScale = 1/SVGRoot.currentScale;
         var targetElement = evt.currentTarget;
         if ( lastElement != targetElement )
         {
            var targetId = targetElement.getAttributeNS(null, 'id');
            var tipId = 'tooltip.' + targetId;
            tipGroup = SVGDocument.getElementById(tipId);
            var xPos = TrueCoords.x + (10 * tipScale);
            var yPos = TrueCoords.y + (10 * tipScale);
            tipGroup.setAttributeNS(null, 'transform', 'translate(' + xPos + ',' + yPos + ') scale(' + tipScale + ')');
            tipGroup.setAttributeNS(null, 'visibility', 'visible');
         }
      };
]]></script>
    </defs>
    <g fill="white" text-rendering="geometricPrecision" shape-rendering="geometricPrecision" transform="translate(-5,15)" stroke="white">
      <rect x="5" width="483" height="523" y="-15" clip-path="url(#clipPath2)" stroke="none"/>
    </g>
    <g id="y.node.0">
      <g fill="rgb(255,204,153)" text-rendering="geometricPrecision" shape-rendering="geometricPrecision" transform="matrix(1,0,0,1,-5,15)" stroke="rgb(255,204,153)">
        <rect x="80.3323" y="0" width="56.1934" rx="4" ry="4" height="30" stroke="none"/>
      </g>
      <g>
        <g text-rendering="geometricPrecision" stroke-miterlimit="1.45" shape-rendering="geometricPrecision" font-family="sans-serif" transform="matrix(1,0,0,1,-5,15)" stroke-linecap="butt">
          <text x="87.3323" xml:space="preserve" y="19.1543" stroke="none">MYD88</text>
        </g>
      </g>
    </g>
    <g id="y.node.1">
      <g fill="rgb(204,153,255)" text-rendering="geometricPrecision" shape-rendering="geometricPrecision" transform="matrix(1,0,0,1,-5,15)" stroke="rgb(204,153,255)">
        <rect x="20.0003" y="155" width="49.5898" rx="4" ry="4" height="30" stroke="none"/>
      </g>
      <g>
        <g text-rendering="geometricPrecision" stroke-miterlimit="1.45" shape-rendering="geometricPrecision" font-family="sans-serif" transform="matrix(1,0,0,1,-5,15)" stroke-linecap="butt">
          <text x="27.0003" xml:space="preserve" y="174.1543" stroke="none">IRAK1</text>
        </g>
      </g>
    </g>
    <g id="y.node.2">
      <g fill="rgb(204,153,255)" text-rendering="geometricPrecision" shape-rendering="geometricPrecision" transform="matrix(1,0,0,1,-5,15)" stroke="rgb(204,153,255)">
        <rect x="41.6485" y="232" width="93.2656" rx="4" ry="4" height="30" stroke="none"/>
      </g>
      <g>
        <g text-rendering="geometricPrecision" stroke-miterlimit="1.45" shape-rendering="geometricPrecision" font-family="sans-serif" transform="matrix(1,0,0,1,-5,15)" stroke-linecap="butt">
          <text x="48.6485" xml:space="preserve" y="251.1543" stroke="none">IRAK1::IRAK4</text>
        </g>
      </g>
    </g>
    <g id="y.node.3">
      <g fill="rgb(204,153,255)" text-rendering="geometricPrecision" shape-rendering="geometricPrecision" transform="matrix(1,0,0,1,-5,15)" stroke="rgb(204,153,255)">
        <rect x="103.7817" y="77" width="49.5898" rx="4" ry="4" height="30" stroke="none"/>
      </g>
      <g>
        <g text-rendering="geometricPrecision" stroke-miterlimit="1.45" shape-rendering="geometricPrecision" font-family="sans-serif" transform="matrix(1,0,0,1,-5,15)" stroke-linecap="butt">
          <text x="110.7817" xml:space="preserve" y="96.1543" stroke="none">IRAK4</text>
        </g>
      </g>
    </g>
    <g id="y.node.4">
      <g fill="rgb(204,153,255)" text-rendering="geometricPrecision" shape-rendering="geometricPrecision" transform="matrix(1,0,0,1,-5,15)" stroke="rgb(204,153,255)">
        <rect x="373.4548" y="77" width="98.9316" rx="4" ry="4" height="30" stroke="none"/>
      </g>
      <g>
        <g text-rendering="geometricPrecision" stroke-miterlimit="1.45" shape-rendering="geometricPrecision" font-family="sans-serif" transform="matrix(1,0,0,1,-5,15)" stroke-linecap="butt">
          <text x="380.4548" xml:space="preserve" y="96.1543" stroke="none">TIRAP::MYD88</text>
        </g>
      </g>
    </g>
    <g id="y.node.5">
      <g fill="rgb(255,204,153)" text-rendering="geometricPrecision" shape-rendering="geometricPrecision" transform="matrix(1,0,0,1,-5,15)" stroke="rgb(255,204,153)">
        <rect x="143.161" y="463" width="52.4141" rx="4" ry="4" height="30" stroke="none"/>
      </g>
      <g>
        <g text-rendering="geometricPrecision" stroke-miterlimit="1.45" shape-rendering="geometricPrecision" font-family="sans-serif" transform="matrix(1,0,0,1,-5,15)" stroke-linecap="butt">
          <text x="150.161" xml:space="preserve" y="482.1543" stroke="none">TRAF6</text>
        </g>
      </g>
    </g>
    <g id="y.node.6">
      <g fill="rgb(204,153,255)" text-rendering="geometricPrecision" shape-rendering="geometricPrecision" transform="matrix(1,0,0,1,-5,15)" stroke="rgb(204,153,255)">
        <rect x="191.7255" y="155" width="50.8086" rx="4" ry="4" height="30" stroke="none"/>
      </g>
      <g>
        <g text-rendering="geometricPrecision" stroke-miterlimit="1.45" shape-rendering="geometricPrecision" font-family="sans-serif" transform="matrix(1,0,0,1,-5,15)" stroke-linecap="butt">
          <text x="198.7255" xml:space="preserve" y="174.1543" stroke="none">IKBKG</text>
        </g>
      </g>
    </g>
    <g id="y.node.7">
      <g fill="rgb(204,153,255)" text-rendering="geometricPrecision" shape-rendering="geometricPrecision" transform="matrix(1,0,0,1,-5,15)" stroke="rgb(204,153,255)">
        <rect x="216.2749" y="309" width="53.6152" rx="4" ry="4" height="30" stroke="none"/>
      </g>
      <g>
        <g text-rendering="geometricPrecision" stroke-miterlimit="1.45" shape-rendering="geometricPrecision" font-family="sans-serif" transform="matrix(1,0,0,1,-5,15)" stroke-linecap="butt">
          <text x="223.2749" xml:space="preserve" y="328.1543" stroke="none">NFKB1</text>
        </g>
      </g>
    </g>
    <g id="y.node.8">
      <g fill="rgb(204,153,255)" text-rendering="geometricPrecision" shape-rendering="geometricPrecision" transform="matrix(1,0,0,1,-5,15)" stroke="rgb(204,153,255)">
        <rect x="165.9146" y="370" width="44.8145" rx="4" ry="4" height="30" stroke="none"/>
      </g>
      <g>
        <g text-rendering="geometricPrecision" stroke-miterlimit="1.45" shape-rendering="geometricPrecision" font-family="sans-serif" transform="matrix(1,0,0,1,-5,15)" stroke-linecap="butt">
          <text x="172.9146" xml:space="preserve" y="389.1543" stroke="none">RELA</text>
        </g>
      </g>
    </g>
    <g id="y.node.9">
      <g fill="rgb(204,153,255)" text-rendering="geometricPrecision" shape-rendering="geometricPrecision" transform="matrix(1,0,0,1,-5,15)" stroke="rgb(204,153,255)">
        <rect x="270.6431" y="232" width="136.7773" rx="4" ry="4" height="30" stroke="none"/>
      </g>
      <g>
        <g text-rendering="geometricPrecision" stroke-miterlimit="1.45" shape-rendering="geometricPrecision" font-family="sans-serif" transform="matrix(1,0,0,1,-5,15)" stroke-linecap="butt">
          <text x="277.6431" xml:space="preserve" y="251.1543" stroke="none">IKBKB::CHUK::IKBKG</text>
        </g>
      </g>
    </g>
    <g id="y.node.10">
      <g fill="rgb(204,153,255)" text-rendering="geometricPrecision" shape-rendering="geometricPrecision" transform="matrix(1,0,0,1,-5,15)" stroke="rgb(204,153,255)">
        <rect x="181.9143" y="232" width="57.7285" rx="4" ry="4" height="30" stroke="none"/>
      </g>
      <g>
        <g text-rendering="geometricPrecision" stroke-miterlimit="1.45" shape-rendering="geometricPrecision" font-family="sans-serif" transform="matrix(1,0,0,1,-5,15)" stroke-linecap="butt">
          <text x="188.9143" xml:space="preserve" y="251.1543" stroke="none">NFKBIA</text>
        </g>
      </g>
    </g>
    <g onmouseout="HideTooltip(evt)" id="y.edge.0" onmousemove="ShowTooltip(evt)">
      <g text-rendering="geometricPrecision" stroke-miterlimit="1.45" shape-rendering="geometricPrecision" transform="matrix(1,0,0,1,-5,15)" stroke-linecap="butt">
        <path fill="none" d="M87.3565 30 L87.3565 45.5 L32.3976 45.5 L32.3978 146.9733"/>
      </g>
      <g text-rendering="geometricPrecision" stroke-miterlimit="1.45" shape-rendering="geometricPrecision" transform="matrix(1,0,0,1,-5,15)" stroke-linecap="butt">
        <path d="M32.3978 154.9733 L37.3978 142.9733 L32.3978 145.9733 L27.3978 142.9733 Z" stroke="none"/>
      </g>
    </g>
    <g onmouseout="HideTooltip(evt)" id="y.edge.1" onmousemove="ShowTooltip(evt)">
      <g text-rendering="geometricPrecision" stroke-miterlimit="1.45" shape-rendering="geometricPrecision" transform="matrix(1,0,0,1,-5,15)" stroke-linecap="butt">
        <path fill="none" d="M101.4048 30 L101.4048 61.5 L88.2813 61.5 L88.2813 223.9584"/>
        <path d="M88.2813 231.9584 L93.2813 219.9584 L88.2813 222.9584 L83.2813 219.9584 Z" stroke="none"/>
      </g>
    </g>
    <g onmouseout="HideTooltip(evt)" id="y.edge.5" onmousemove="ShowTooltip(evt)">
      <g text-rendering="geometricPrecision" stroke-miterlimit="1.45" shape-rendering="geometricPrecision" transform="matrix(1,0,0,1,-5,15)" stroke-linecap="butt">
        <path fill="none" d="M57.1927 185 L57.1928 223.9541"/>
        <path d="M57.1928 231.9541 L62.1928 219.9541 L57.1928 222.9541 L52.1928 219.9541 Z" stroke="none"/>
      </g>
    </g>
    <g onmouseout="HideTooltip(evt)" id="y.edge.2" onmousemove="ShowTooltip(evt)">
      <g text-rendering="geometricPrecision" stroke-miterlimit="1.45" shape-rendering="geometricPrecision" transform="matrix(1,0,0,1,-5,15)" stroke-linecap="butt">
        <path fill="none" d="M115.4531 30 L115.4531 61.5 L128.5766 61.5 L128.5766 68.9697"/>
        <path d="M128.5766 76.9697 L133.5766 64.9697 L128.5766 67.9697 L123.5766 64.9697 Z" stroke="none"/>
      </g>
    </g>
    <g onmouseout="HideTooltip(evt)" id="y.edge.8" onmousemove="ShowTooltip(evt)">
      <g text-rendering="geometricPrecision" stroke-miterlimit="1.45" shape-rendering="geometricPrecision" transform="matrix(1,0,0,1,-5,15)" stroke-linecap="butt">
        <path fill="none" d="M109.9804 107 L109.9804 122.5 L93.2813 122.5 M83.2813 122.5 L57.1927 122.5 L57.1927 146.9683"/>
        <path d="M57.1927 154.9683 L62.1927 142.9683 L57.1927 145.9683 L52.1927 142.9683 Z" stroke="none"/>
      </g>
    </g>
    <g onmouseout="HideTooltip(evt)" id="y.edge.9" onmousemove="ShowTooltip(evt)">
      <g text-rendering="geometricPrecision" stroke-miterlimit="1.45" shape-rendering="geometricPrecision" transform="matrix(1,0,0,1,-5,15)" stroke-linecap="butt">
        <path fill="none" d="M122.3779 107 L122.3779 138.5 L119.3698 138.5 L119.3699 223.9543"/>
        <path d="M119.3699 231.9543 L124.3699 219.9543 L119.3699 222.9543 L114.3699 219.9543 Z" stroke="none"/>
      </g>
    </g>
    <g onmouseout="HideTooltip(evt)" id="y.edge.3" onmousemove="ShowTooltip(evt)">
      <g text-rendering="geometricPrecision" stroke-miterlimit="1.45" shape-rendering="geometricPrecision" transform="matrix(1,0,0,1,-5,15)" stroke-linecap="butt">
        <path fill="none" d="M129.5015 30 L129.5015 45.5 L422.9206 45.5 L422.9206 68.9692"/>
        <path d="M422.9206 76.9692 L427.9206 64.9692 L422.9206 67.9692 L417.9206 64.9692 Z" stroke="none"/>
      </g>
    </g>
    <g onmouseout="HideTooltip(evt)" id="y.edge.4" onmousemove="ShowTooltip(evt)">
      <g text-rendering="geometricPrecision" stroke-miterlimit="1.45" shape-rendering="geometricPrecision" transform="matrix(1,0,0,1,-5,15)" stroke-linecap="butt">
        <path fill="none" d="M32.3978 185 L32.3978 200.5 L26.1484 200.5 L26.1484 447.5 L147.5289 447.5 L147.5289 454.9697"/>
        <path d="M147.5289 462.9697 L152.5289 450.9697 L147.5289 453.9697 L142.5289 450.9697 Z" stroke="none"/>
      </g>
    </g>
    <g onmouseout="HideTooltip(evt)" id="y.edge.6" onmousemove="ShowTooltip(evt)">
      <g text-rendering="geometricPrecision" stroke-miterlimit="1.45" shape-rendering="geometricPrecision" transform="matrix(1,0,0,1,-5,15)" stroke-linecap="butt">
        <path fill="none" d="M88.2813 262 L88.2813 431.5 L156.2645 431.5 L156.2645 454.9692"/>
        <path d="M156.2645 462.9692 L161.2645 450.9692 L156.2645 453.9692 L151.2645 450.9692 Z" stroke="none"/>
      </g>
    </g>
    <g onmouseout="HideTooltip(evt)" id="y.edge.7" onmousemove="ShowTooltip(evt)">
      <g text-rendering="geometricPrecision" stroke-miterlimit="1.45" shape-rendering="geometricPrecision" transform="matrix(1,0,0,1,-5,15)" stroke-linecap="butt">
        <path fill="none" d="M134.7753 107 L134.7753 154.5 L150.4143 154.5 L150.4143 415.5 L165.0002 415.5 L165.0002 454.9536"/>
        <path d="M165.0002 462.9536 L170.0002 450.9536 L165.0002 453.9536 L160.0002 450.9536 Z" stroke="none"/>
      </g>
    </g>
    <g onmouseout="HideTooltip(evt)" id="y.edge.11" onmousemove="ShowTooltip(evt)">
      <g text-rendering="geometricPrecision" stroke-miterlimit="1.45" shape-rendering="geometricPrecision" transform="matrix(1,0,0,1,-5,15)" stroke-linecap="butt">
        <path fill="none" d="M422.9206 107 L422.9206 447.5 L191.2072 447.5 L191.2072 454.9697"/>
        <path d="M191.2072 462.9697 L196.2072 450.9697 L191.2072 453.9697 L186.2072 450.9697 Z" stroke="none"/>
      </g>
    </g>
    <g onmouseout="HideTooltip(evt)" id="y.edge.10" onmousemove="ShowTooltip(evt)">
      <g text-rendering="geometricPrecision" stroke-miterlimit="1.45" shape-rendering="geometricPrecision" transform="matrix(1,0,0,1,-5,15)" stroke-linecap="butt">
        <path fill="none" d="M147.1728 107 L147.1728 122.5 L217.1298 122.5 L217.1298 146.9683"/>
        <path d="M217.1298 154.9683 L222.1298 142.9683 L217.1298 145.9683 L212.1298 142.9683 Z" stroke="none"/>
      </g>
    </g>
    <g onmouseout="HideTooltip(evt)" id="y.edge.12" onmousemove="ShowTooltip(evt)">
      <g text-rendering="geometricPrecision" stroke-miterlimit="1.45" shape-rendering="geometricPrecision" transform="matrix(1,0,0,1,-5,15)" stroke-linecap="butt">
        <path fill="none" d="M223.4808 185 L223.4808 216.5 L255.1429 216.5 L255.1429 277.5 L243.0825 277.5 L243.0825 300.9692"/>
        <path d="M243.0825 308.9692 L248.0825 296.9692 L243.0825 299.9692 L238.0825 296.9692 Z" stroke="none"/>
      </g>
    </g>
    <g onmouseout="HideTooltip(evt)" id="y.edge.16" onmousemove="ShowTooltip(evt)">
      <g text-rendering="geometricPrecision" stroke-miterlimit="1.45" shape-rendering="geometricPrecision" transform="matrix(1,0,0,1,-5,15)" stroke-linecap="butt">
        <path fill="none" d="M256.4864 339 L256.4865 431.5 L182.4716 431.5 L182.4716 454.9692"/>
        <path d="M182.4716 462.9692 L187.4716 450.9692 L182.4716 453.9692 L177.4716 450.9692 Z" stroke="none"/>
      </g>
    </g>
    <g onmouseout="HideTooltip(evt)" id="y.edge.13" onmousemove="ShowTooltip(evt)">
      <g text-rendering="geometricPrecision" stroke-miterlimit="1.45" shape-rendering="geometricPrecision" transform="matrix(1,0,0,1,-5,15)" stroke-linecap="butt">
        <path fill="none" d="M198.0765 185 L198.0765 200.5 L166.4143 200.5 L166.4143 339.5 L173.3837 339.5 L173.3837 361.9702"/>
        <path d="M173.3837 369.9702 L178.3837 357.9702 L173.3837 360.9702 L168.3837 357.9702 Z" stroke="none"/>
      </g>
    </g>
    <g onmouseout="HideTooltip(evt)" id="y.edge.17" onmousemove="ShowTooltip(evt)">
      <g text-rendering="geometricPrecision" stroke-miterlimit="1.45" shape-rendering="geometricPrecision" transform="matrix(1,0,0,1,-5,15)" stroke-linecap="butt">
        <path fill="none" d="M229.6787 339 L229.6787 354.5 L203.26 354.5 L203.26 361.9697"/>
        <path d="M203.26 369.9697 L208.26 357.9697 L203.26 360.9697 L198.26 357.9697 Z" stroke="none"/>
      </g>
    </g>
    <g onmouseout="HideTooltip(evt)" id="y.edge.18" onmousemove="ShowTooltip(evt)">
      <g text-rendering="geometricPrecision" stroke-miterlimit="1.45" shape-rendering="geometricPrecision" transform="matrix(1,0,0,1,-5,15)" stroke-linecap="butt">
        <path fill="none" d="M188.3218 400 L188.3218 415.5 L173.7359 415.5 L173.7359 454.9536"/>
        <path d="M173.7359 462.9536 L178.7359 450.9536 L173.7359 453.9536 L168.7359 450.9536 Z" stroke="none"/>
      </g>
    </g>
    <g onmouseout="HideTooltip(evt)" id="y.edge.14" onmousemove="ShowTooltip(evt)">
      <g text-rendering="geometricPrecision" stroke-miterlimit="1.45" shape-rendering="geometricPrecision" transform="matrix(1,0,0,1,-5,15)" stroke-linecap="butt">
        <path fill="none" d="M236.183 185 L236.183 200.5 L339.0317 200.5 L339.0317 223.9692"/>
        <path d="M339.0317 231.9692 L344.0317 219.9692 L339.0317 222.9692 L334.0317 219.9692 Z" stroke="none"/>
      </g>
    </g>
    <g onmouseout="HideTooltip(evt)" id="y.edge.19" onmousemove="ShowTooltip(evt)">
      <g text-rendering="geometricPrecision" stroke-miterlimit="1.45" shape-rendering="geometricPrecision" transform="matrix(1,0,0,1,-5,15)" stroke-linecap="butt">
        <path fill="none" d="M339.0317 262 L339.0317 293.5 L260.9543 293.5 L260.9543 300.9697"/>
        <path d="M260.9543 308.9697 L265.9543 296.9697 L260.9543 299.9697 L255.9543 296.9697 Z" stroke="none"/>
      </g>
    </g>
    <g onmouseout="HideTooltip(evt)" id="y.edge.15" onmousemove="ShowTooltip(evt)">
      <g text-rendering="geometricPrecision" stroke-miterlimit="1.45" shape-rendering="geometricPrecision" transform="matrix(1,0,0,1,-5,15)" stroke-linecap="butt">
        <path fill="none" d="M210.7787 185 L210.7786 223.9541"/>
        <path d="M210.7786 231.9541 L215.7786 219.9541 L210.7786 222.9541 L205.7786 219.9541 Z" stroke="none"/>
      </g>
    </g>
    <g onmouseout="HideTooltip(evt)" id="y.edge.20" onmousemove="ShowTooltip(evt)">
      <g text-rendering="geometricPrecision" stroke-miterlimit="1.45" shape-rendering="geometricPrecision" transform="matrix(1,0,0,1,-5,15)" stroke-linecap="butt">
        <path fill="none" d="M196.3464 262 L196.3464 277.5 L188.3218 277.5 L188.3218 361.9548"/>
        <path d="M188.3218 369.9548 L193.3218 357.9548 L188.3218 360.9548 L183.3218 357.9548 Z" stroke="none"/>
      </g>
    </g>
    <g onmouseout="HideTooltip(evt)" id="y.edge.21" onmousemove="ShowTooltip(evt)">
      <g text-rendering="geometricPrecision" stroke-miterlimit="1.45" shape-rendering="geometricPrecision" transform="matrix(1,0,0,1,-5,15)" stroke-linecap="butt">
        <path fill="none" d="M225.2107 262 L225.2108 300.9541"/>
        <path d="M225.2108 308.9541 L230.2108 296.9541 L225.2108 299.9541 L220.2108 296.9541 Z" stroke="none"/>
      </g>
    </g>
    <g visibility="hidden" id="tooltip.y.edge.0" pointer-events="none">
      <g fill="rgb(195,212,232)" text-rendering="geometricPrecision" shape-rendering="geometricPrecision" font-family="sans-serif" stroke="rgb(195,212,232)">
        <rect x="0" width="67" height="17" y="0" clip-path="url(#clipPath3)" stroke="none"/>
        <text fill="black" x="4" xml:space="preserve" y="13" clip-path="url(#clipPath3)" stroke="none">activation</text>
      </g>
      <g fill="rgb(49,106,196)" text-rendering="geometricPrecision" shape-rendering="geometricPrecision" font-family="sans-serif" stroke="rgb(49,106,196)">
        <path d="M0 0 L67 0 L67 17 L0 17 L0 0 ZM1 1 L66 1 L66 16 L1 16 L1 1 Z" fill-rule="evenodd" clip-path="url(#clipPath3)" stroke="none"/>
      </g>
    </g>
    <g visibility="hidden" id="tooltip.y.edge.1" pointer-events="none">
      <g fill="rgb(195,212,232)" text-rendering="geometricPrecision" shape-rendering="geometricPrecision" font-family="sans-serif" stroke="rgb(195,212,232)">
        <rect x="0" width="67" height="17" y="0" clip-path="url(#clipPath3)" stroke="none"/>
        <text fill="black" x="4" xml:space="preserve" y="13" clip-path="url(#clipPath3)" stroke="none">activation</text>
      </g>
      <g fill="rgb(49,106,196)" text-rendering="geometricPrecision" shape-rendering="geometricPrecision" font-family="sans-serif" stroke="rgb(49,106,196)">
        <path d="M0 0 L67 0 L67 17 L0 17 L0 0 ZM1 1 L66 1 L66 16 L1 16 L1 1 Z" fill-rule="evenodd" clip-path="url(#clipPath3)" stroke="none"/>
      </g>
    </g>
    <g visibility="hidden" id="tooltip.y.edge.2" pointer-events="none">
      <g fill="rgb(195,212,232)" text-rendering="geometricPrecision" shape-rendering="geometricPrecision" font-family="sans-serif" stroke="rgb(195,212,232)">
        <rect x="0" width="67" height="17" y="0" clip-path="url(#clipPath3)" stroke="none"/>
        <text fill="black" x="4" xml:space="preserve" y="13" clip-path="url(#clipPath3)" stroke="none">activation</text>
      </g>
      <g fill="rgb(49,106,196)" text-rendering="geometricPrecision" shape-rendering="geometricPrecision" font-family="sans-serif" stroke="rgb(49,106,196)">
        <path d="M0 0 L67 0 L67 17 L0 17 L0 0 ZM1 1 L66 1 L66 16 L1 16 L1 1 Z" fill-rule="evenodd" clip-path="url(#clipPath3)" stroke="none"/>
      </g>
    </g>
    <g visibility="hidden" id="tooltip.y.edge.3" pointer-events="none">
      <g fill="rgb(195,212,232)" text-rendering="geometricPrecision" shape-rendering="geometricPrecision" font-family="sans-serif" stroke="rgb(195,212,232)">
        <rect x="0" width="74" height="17" y="0" clip-path="url(#clipPath4)" stroke="none"/>
        <text fill="black" x="4" xml:space="preserve" y="13" clip-path="url(#clipPath4)" stroke="none">is_member</text>
      </g>
      <g fill="rgb(49,106,196)" text-rendering="geometricPrecision" shape-rendering="geometricPrecision" font-family="sans-serif" stroke="rgb(49,106,196)">
        <path d="M0 0 L74 0 L74 17 L0 17 L0 0 ZM1 1 L73 1 L73 16 L1 16 L1 1 Z" fill-rule="evenodd" clip-path="url(#clipPath4)" stroke="none"/>
      </g>
    </g>
    <g visibility="hidden" id="tooltip.y.edge.4" pointer-events="none">
      <g fill="rgb(195,212,232)" text-rendering="geometricPrecision" shape-rendering="geometricPrecision" font-family="sans-serif" stroke="rgb(195,212,232)">
        <rect x="0" width="67" height="17" y="0" clip-path="url(#clipPath3)" stroke="none"/>
        <text fill="black" x="4" xml:space="preserve" y="13" clip-path="url(#clipPath3)" stroke="none">activation</text>
      </g>
      <g fill="rgb(49,106,196)" text-rendering="geometricPrecision" shape-rendering="geometricPrecision" font-family="sans-serif" stroke="rgb(49,106,196)">
        <path d="M0 0 L67 0 L67 17 L0 17 L0 0 ZM1 1 L66 1 L66 16 L1 16 L1 1 Z" fill-rule="evenodd" clip-path="url(#clipPath3)" stroke="none"/>
      </g>
    </g>
    <g visibility="hidden" id="tooltip.y.edge.5" pointer-events="none">
      <g fill="rgb(195,212,232)" text-rendering="geometricPrecision" shape-rendering="geometricPrecision" font-family="sans-serif" stroke="rgb(195,212,232)">
        <rect x="0" width="74" height="17" y="0" clip-path="url(#clipPath4)" stroke="none"/>
        <text fill="black" x="4" xml:space="preserve" y="13" clip-path="url(#clipPath4)" stroke="none">is_member</text>
      </g>
      <g fill="rgb(49,106,196)" text-rendering="geometricPrecision" shape-rendering="geometricPrecision" font-family="sans-serif" stroke="rgb(49,106,196)">
        <path d="M0 0 L74 0 L74 17 L0 17 L0 0 ZM1 1 L73 1 L73 16 L1 16 L1 1 Z" fill-rule="evenodd" clip-path="url(#clipPath4)" stroke="none"/>
      </g>
    </g>
    <g visibility="hidden" id="tooltip.y.edge.6" pointer-events="none">
      <g fill="rgb(195,212,232)" text-rendering="geometricPrecision" shape-rendering="geometricPrecision" font-family="sans-serif" stroke="rgb(195,212,232)">
        <rect x="0" width="67" height="17" y="0" clip-path="url(#clipPath3)" stroke="none"/>
        <text fill="black" x="4" xml:space="preserve" y="13" clip-path="url(#clipPath3)" stroke="none">activation</text>
      </g>
      <g fill="rgb(49,106,196)" text-rendering="geometricPrecision" shape-rendering="geometricPrecision" font-family="sans-serif" stroke="rgb(49,106,196)">
        <path d="M0 0 L67 0 L67 17 L0 17 L0 0 ZM1 1 L66 1 L66 16 L1 16 L1 1 Z" fill-rule="evenodd" clip-path="url(#clipPath3)" stroke="none"/>
      </g>
    </g>
    <g visibility="hidden" id="tooltip.y.edge.7" pointer-events="none">
      <g fill="rgb(195,212,232)" text-rendering="geometricPrecision" shape-rendering="geometricPrecision" font-family="sans-serif" stroke="rgb(195,212,232)">
        <rect x="0" width="187" height="17" y="0" clip-path="url(#clipPath5)" stroke="none"/>
        <text fill="black" x="4" xml:space="preserve" y="13" clip-path="url(#clipPath5)" stroke="none">binding/association,activation</text>
      </g>
      <g fill="rgb(49,106,196)" text-rendering="geometricPrecision" shape-rendering="geometricPrecision" font-family="sans-serif" stroke="rgb(49,106,196)">
        <path d="M0 0 L187 0 L187 17 L0 17 L0 0 ZM1 1 L186 1 L186 16 L1 16 L1 1 Z" fill-rule="evenodd" clip-path="url(#clipPath5)" stroke="none"/>
      </g>
    </g>
    <g visibility="hidden" id="tooltip.y.edge.8" pointer-events="none">
      <g fill="rgb(195,212,232)" text-rendering="geometricPrecision" shape-rendering="geometricPrecision" font-family="sans-serif" stroke="rgb(195,212,232)">
        <rect x="0" width="168" height="17" y="0" clip-path="url(#clipPath6)" stroke="none"/>
        <text fill="black" x="4" xml:space="preserve" y="13" clip-path="url(#clipPath6)" stroke="none">activation,phosphorylation</text>
      </g>
      <g fill="rgb(49,106,196)" text-rendering="geometricPrecision" shape-rendering="geometricPrecision" font-family="sans-serif" stroke="rgb(49,106,196)">
        <path d="M0 0 L168 0 L168 17 L0 17 L0 0 ZM1 1 L167 1 L167 16 L1 16 L1 1 Z" fill-rule="evenodd" clip-path="url(#clipPath6)" stroke="none"/>
      </g>
    </g>
    <g visibility="hidden" id="tooltip.y.edge.9" pointer-events="none">
      <g fill="rgb(195,212,232)" text-rendering="geometricPrecision" shape-rendering="geometricPrecision" font-family="sans-serif" stroke="rgb(195,212,232)">
        <rect x="0" width="74" height="17" y="0" clip-path="url(#clipPath4)" stroke="none"/>
        <text fill="black" x="4" xml:space="preserve" y="13" clip-path="url(#clipPath4)" stroke="none">is_member</text>
      </g>
      <g fill="rgb(49,106,196)" text-rendering="geometricPrecision" shape-rendering="geometricPrecision" font-family="sans-serif" stroke="rgb(49,106,196)">
        <path d="M0 0 L74 0 L74 17 L0 17 L0 0 ZM1 1 L73 1 L73 16 L1 16 L1 1 Z" fill-rule="evenodd" clip-path="url(#clipPath4)" stroke="none"/>
      </g>
    </g>
    <g visibility="hidden" id="tooltip.y.edge.10" pointer-events="none">
      <g fill="rgb(195,212,232)" text-rendering="geometricPrecision" shape-rendering="geometricPrecision" font-family="sans-serif" stroke="rgb(195,212,232)">
        <rect x="0" width="67" height="17" y="0" clip-path="url(#clipPath3)" stroke="none"/>
        <text fill="black" x="4" xml:space="preserve" y="13" clip-path="url(#clipPath3)" stroke="none">activation</text>
      </g>
      <g fill="rgb(49,106,196)" text-rendering="geometricPrecision" shape-rendering="geometricPrecision" font-family="sans-serif" stroke="rgb(49,106,196)">
        <path d="M0 0 L67 0 L67 17 L0 17 L0 0 ZM1 1 L66 1 L66 16 L1 16 L1 1 Z" fill-rule="evenodd" clip-path="url(#clipPath3)" stroke="none"/>
      </g>
    </g>
    <g visibility="hidden" id="tooltip.y.edge.11" pointer-events="none">
      <g fill="rgb(195,212,232)" text-rendering="geometricPrecision" shape-rendering="geometricPrecision" font-family="sans-serif" stroke="rgb(195,212,232)">
        <rect x="0" width="67" height="17" y="0" clip-path="url(#clipPath3)" stroke="none"/>
        <text fill="black" x="4" xml:space="preserve" y="13" clip-path="url(#clipPath3)" stroke="none">activation</text>
      </g>
      <g fill="rgb(49,106,196)" text-rendering="geometricPrecision" shape-rendering="geometricPrecision" font-family="sans-serif" stroke="rgb(49,106,196)">
        <path d="M0 0 L67 0 L67 17 L0 17 L0 0 ZM1 1 L66 1 L66 16 L1 16 L1 1 Z" fill-rule="evenodd" clip-path="url(#clipPath3)" stroke="none"/>
      </g>
    </g>
    <g visibility="hidden" id="tooltip.y.edge.12" pointer-events="none">
      <g fill="rgb(195,212,232)" text-rendering="geometricPrecision" shape-rendering="geometricPrecision" font-family="sans-serif" stroke="rgb(195,212,232)">
        <rect x="0" width="67" height="17" y="0" clip-path="url(#clipPath3)" stroke="none"/>
        <text fill="black" x="4" xml:space="preserve" y="13" clip-path="url(#clipPath3)" stroke="none">activation</text>
      </g>
      <g fill="rgb(49,106,196)" text-rendering="geometricPrecision" shape-rendering="geometricPrecision" font-family="sans-serif" stroke="rgb(49,106,196)">
        <path d="M0 0 L67 0 L67 17 L0 17 L0 0 ZM1 1 L66 1 L66 16 L1 16 L1 1 Z" fill-rule="evenodd" clip-path="url(#clipPath3)" stroke="none"/>
      </g>
    </g>
    <g visibility="hidden" id="tooltip.y.edge.13" pointer-events="none">
      <g fill="rgb(195,212,232)" text-rendering="geometricPrecision" shape-rendering="geometricPrecision" font-family="sans-serif" stroke="rgb(195,212,232)">
        <rect x="0" width="67" height="17" y="0" clip-path="url(#clipPath3)" stroke="none"/>
        <text fill="black" x="4" xml:space="preserve" y="13" clip-path="url(#clipPath3)" stroke="none">activation</text>
      </g>
      <g fill="rgb(49,106,196)" text-rendering="geometricPrecision" shape-rendering="geometricPrecision" font-family="sans-serif" stroke="rgb(49,106,196)">
        <path d="M0 0 L67 0 L67 17 L0 17 L0 0 ZM1 1 L66 1 L66 16 L1 16 L1 1 Z" fill-rule="evenodd" clip-path="url(#clipPath3)" stroke="none"/>
      </g>
    </g>
    <g visibility="hidden" id="tooltip.y.edge.14" pointer-events="none">
      <g fill="rgb(195,212,232)" text-rendering="geometricPrecision" shape-rendering="geometricPrecision" font-family="sans-serif" stroke="rgb(195,212,232)">
        <rect x="0" width="74" height="17" y="0" clip-path="url(#clipPath4)" stroke="none"/>
        <text fill="black" x="4" xml:space="preserve" y="13" clip-path="url(#clipPath4)" stroke="none">is_member</text>
      </g>
      <g fill="rgb(49,106,196)" text-rendering="geometricPrecision" shape-rendering="geometricPrecision" font-family="sans-serif" stroke="rgb(49,106,196)">
        <path d="M0 0 L74 0 L74 17 L0 17 L0 0 ZM1 1 L73 1 L73 16 L1 16 L1 1 Z" fill-rule="evenodd" clip-path="url(#clipPath4)" stroke="none"/>
      </g>
    </g>
    <g visibility="hidden" id="tooltip.y.edge.15" pointer-events="none">
      <g fill="rgb(195,212,232)" text-rendering="geometricPrecision" shape-rendering="geometricPrecision" font-family="sans-serif" stroke="rgb(195,212,232)">
        <rect x="0" width="168" height="17" y="0" clip-path="url(#clipPath6)" stroke="none"/>
        <text fill="black" x="4" xml:space="preserve" y="13" clip-path="url(#clipPath6)" stroke="none">phosphorylation,activation</text>
      </g>
      <g fill="rgb(49,106,196)" text-rendering="geometricPrecision" shape-rendering="geometricPrecision" font-family="sans-serif" stroke="rgb(49,106,196)">
        <path d="M0 0 L168 0 L168 17 L0 17 L0 0 ZM1 1 L167 1 L167 16 L1 16 L1 1 Z" fill-rule="evenodd" clip-path="url(#clipPath6)" stroke="none"/>
      </g>
    </g>
    <g visibility="hidden" id="tooltip.y.edge.16" pointer-events="none">
      <g fill="rgb(195,212,232)" text-rendering="geometricPrecision" shape-rendering="geometricPrecision" font-family="sans-serif" stroke="rgb(195,212,232)">
        <rect x="0" width="72" height="17" y="0" clip-path="url(#clipPath7)" stroke="none"/>
        <text fill="black" x="4" xml:space="preserve" y="13" clip-path="url(#clipPath7)" stroke="none">expression</text>
      </g>
      <g fill="rgb(49,106,196)" text-rendering="geometricPrecision" shape-rendering="geometricPrecision" font-family="sans-serif" stroke="rgb(49,106,196)">
        <path d="M0 0 L72 0 L72 17 L0 17 L0 0 ZM1 1 L71 1 L71 16 L1 16 L1 1 Z" fill-rule="evenodd" clip-path="url(#clipPath7)" stroke="none"/>
      </g>
    </g>
    <g visibility="hidden" id="tooltip.y.edge.17" pointer-events="none">
      <g fill="rgb(195,212,232)" text-rendering="geometricPrecision" shape-rendering="geometricPrecision" font-family="sans-serif" stroke="rgb(195,212,232)">
        <rect x="0" width="147" height="17" y="0" clip-path="url(#clipPath8)" stroke="none"/>
        <text fill="black" x="4" xml:space="preserve" y="13" clip-path="url(#clipPath8)" stroke="none">inhibition,state change</text>
      </g>
      <g fill="rgb(49,106,196)" text-rendering="geometricPrecision" shape-rendering="geometricPrecision" font-family="sans-serif" stroke="rgb(49,106,196)">
        <path d="M0 0 L147 0 L147 17 L0 17 L0 0 ZM1 1 L146 1 L146 16 L1 16 L1 1 Z" fill-rule="evenodd" clip-path="url(#clipPath8)" stroke="none"/>
      </g>
    </g>
    <g visibility="hidden" id="tooltip.y.edge.18" pointer-events="none">
      <g fill="rgb(195,212,232)" text-rendering="geometricPrecision" shape-rendering="geometricPrecision" font-family="sans-serif" stroke="rgb(195,212,232)">
        <rect x="0" width="72" height="17" y="0" clip-path="url(#clipPath7)" stroke="none"/>
        <text fill="black" x="4" xml:space="preserve" y="13" clip-path="url(#clipPath7)" stroke="none">expression</text>
      </g>
      <g fill="rgb(49,106,196)" text-rendering="geometricPrecision" shape-rendering="geometricPrecision" font-family="sans-serif" stroke="rgb(49,106,196)">
        <path d="M0 0 L72 0 L72 17 L0 17 L0 0 ZM1 1 L71 1 L71 16 L1 16 L1 1 Z" fill-rule="evenodd" clip-path="url(#clipPath7)" stroke="none"/>
      </g>
    </g>
    <g visibility="hidden" id="tooltip.y.edge.19" pointer-events="none">
      <g fill="rgb(195,212,232)" text-rendering="geometricPrecision" shape-rendering="geometricPrecision" font-family="sans-serif" stroke="rgb(195,212,232)">
        <rect x="0" width="67" height="17" y="0" clip-path="url(#clipPath3)" stroke="none"/>
        <text fill="black" x="4" xml:space="preserve" y="13" clip-path="url(#clipPath3)" stroke="none">activation</text>
      </g>
      <g fill="rgb(49,106,196)" text-rendering="geometricPrecision" shape-rendering="geometricPrecision" font-family="sans-serif" stroke="rgb(49,106,196)">
        <path d="M0 0 L67 0 L67 17 L0 17 L0 0 ZM1 1 L66 1 L66 16 L1 16 L1 1 Z" fill-rule="evenodd" clip-path="url(#clipPath3)" stroke="none"/>
      </g>
    </g>
    <g visibility="hidden" id="tooltip.y.edge.20" pointer-events="none">
      <g fill="rgb(195,212,232)" text-rendering="geometricPrecision" shape-rendering="geometricPrecision" font-family="sans-serif" stroke="rgb(195,212,232)">
        <rect x="0" width="201" height="17" y="0" clip-path="url(#clipPath9)" stroke="none"/>
        <text fill="black" x="4" xml:space="preserve" y="13" clip-path="url(#clipPath9)" stroke="none">dissociation,inhibition,activation</text>
      </g>
      <g fill="rgb(49,106,196)" text-rendering="geometricPrecision" shape-rendering="geometricPrecision" font-family="sans-serif" stroke="rgb(49,106,196)">
        <path d="M0 0 L201 0 L201 17 L0 17 L0 0 ZM1 1 L200 1 L200 16 L1 16 L1 1 Z" fill-rule="evenodd" clip-path="url(#clipPath9)" stroke="none"/>
      </g>
    </g>
    <g visibility="hidden" id="tooltip.y.edge.21" pointer-events="none">
      <g fill="rgb(195,212,232)" text-rendering="geometricPrecision" shape-rendering="geometricPrecision" font-family="sans-serif" stroke="rgb(195,212,232)">
        <rect x="0" width="201" height="17" y="0" clip-path="url(#clipPath9)" stroke="none"/>
        <text fill="black" x="4" xml:space="preserve" y="13" clip-path="url(#clipPath9)" stroke="none">dissociation,inhibition,activation</text>
      </g>
      <g fill="rgb(49,106,196)" text-rendering="geometricPrecision" shape-rendering="geometricPrecision" font-family="sans-serif" stroke="rgb(49,106,196)">
        <path d="M0 0 L201 0 L201 17 L0 17 L0 0 ZM1 1 L200 1 L200 16 L1 16 L1 1 Z" fill-rule="evenodd" clip-path="url(#clipPath9)" stroke="none"/>
      </g>
    </g>
  </g>
</svg>
